<?xml version="1.0" standalone="no"?>
<!DOCTYPE svg PUBLIC "-//W3C//DTD SVG 20010904//EN"
 "http://www.w3.org/TR/2001/REC-SVG-20010904/DTD/svg10.dtd">
<svg version="1.0" xmlns="http://www.w3.org/2000/svg"
 width="267.000000pt" height="265.000000pt" viewBox="0 0 267.000000 265.000000"
 preserveAspectRatio="xMidYMid meet">

<g transform="translate(0.000000,265.000000) scale(0.100000,-0.100000)"
fill="#000000" stroke="none">
<path d="M950 2624 c-111 -33 -252 -100 -358 -171 -106 -70 -264 -221 -349
-333 -76 -101 -171 -289 -210 -415 -26 -86 -27 -101 -31 -355 -3 -242 -2 -272
18 -356 51 -223 159 -420 331 -608 133 -146 371 -301 553 -360 78 -26 79 -26
438 -26 357 0 360 0 434 25 189 63 350 163 506 314 165 158 283 341 355 546
l28 80 3 337 3 338 -35 104 c-67 201 -171 369 -321 521 -182 185 -386 308
-610 366 -61 16 -110 19 -370 18 -290 0 -303 -1 -385 -25z m-35 -785 c176 -32
310 -183 350 -393 8 -43 15 -98 15 -122 l0 -44 -377 -2 -378 -3 -3 -27 c-5
-46 27 -149 61 -196 77 -108 261 -148 391 -87 46 22 98 76 112 117 l11 33 83
3 83 3 -7 -33 c-11 -55 -53 -131 -98 -177 -80 -81 -189 -121 -328 -121 -248 0
-409 127 -466 367 -21 85 -23 240 -5 313 66 265 296 417 556 369z m781 -175
c115 -168 129 -185 141 -168 7 11 65 93 131 184 l118 165 102 3 c56 1 102 -1
102 -5 0 -4 -79 -113 -175 -242 -96 -128 -175 -237 -175 -242 0 -5 53 -83 117
-172 64 -89 139 -193 166 -232 27 -38 65 -91 84 -117 l35 -48 -114 0 -114 0
-144 215 c-78 118 -146 212 -150 210 -3 -2 -69 -99 -146 -214 l-139 -211 -108
0 -108 0 22 33 c13 17 101 141 196 274 95 133 173 245 173 247 0 3 -81 115
-180 250 -99 134 -180 247 -180 250 0 3 49 6 109 6 l110 0 127 -186z"/>
<path d="M712 1681 c-76 -26 -119 -66 -157 -146 -13 -27 -26 -65 -30 -82 l-7
-33 292 0 292 0 -7 37 c-25 137 -153 244 -289 243 -23 -1 -65 -9 -94 -19z"/>
</g>
</svg>
