<?xml version="1.0" encoding="UTF-8"?>
<svg xmlns="http://www.w3.org/2000/svg" xmlns:xlink="http://www.w3.org/1999/xlink" width="144pt" height="144pt" viewBox="0 0 144 144" version="1.1">
<g id="surface426956">
<path style=" stroke:none;fill-rule:nonzero;fill:rgb(90.588235%,64.313725%,16.862745%);fill-opacity:1;" d="M 24 15 L 126 15 L 114 117 L 75 129 L 33 117 Z M 24 15 "/>
<path style=" stroke:none;fill-rule:nonzero;fill:rgb(90.588235%,64.313725%,16.862745%);fill-opacity:1;" d="M 115.890625 24 L 105.75 110.128906 L 75 119.578125 L 75 24 Z M 115.890625 24 "/>
<path style=" stroke:none;fill-rule:nonzero;fill:rgb(98.039216%,97.647059%,97.254902%);fill-opacity:1;" d="M 75 63 L 78 69 L 75 75 L 47.371094 75 L 49.921875 36 L 75 36 L 78 42 L 75 48 L 63.089844 48 L 62.101562 63 Z M 75 63 "/>
<path style=" stroke:none;fill-rule:nonzero;fill:rgb(92.156863%,92.156863%,92.156863%);fill-opacity:1;" d="M 74.699219 97.710938 L 75 97.621094 L 78 105 L 75 110.160156 L 74.820312 110.21875 L 49.828125 103.078125 L 48.148438 84 L 60.210938 84 L 61.050781 93.808594 Z M 74.699219 97.710938 "/>
<path style=" stroke:none;fill-rule:nonzero;fill:rgb(100%,100%,100%);fill-opacity:1;" d="M 102.210938 63 L 97.5 103.261719 L 75 110.160156 L 75 97.621094 L 86.488281 94.078125 L 88.710938 75 L 75 75 L 75 63 Z M 102.210938 63 "/>
<path style=" stroke:none;fill-rule:nonzero;fill:rgb(100%,100%,100%);fill-opacity:1;" d="M 104.761719 54 L 92.789062 54 L 92.011719 48 L 75 48 L 75 36 L 102.390625 36 L 102.898438 39.78125 Z M 104.761719 54 "/>
</g>
</svg>
